<?xml version="1.0" encoding="utf-8"?>
<svg id="683d3690-e1ab-45db-97b8-9484a1649262" data-name="Layer 1" xmlns="http://www.w3.org/2000/svg" width="839.2" height="727.08" viewBox="0 0 839.2 727.08" xmlns:bx="https://boxy-svg.com"><defs><bx:export><bx:file format="svg" path="happy birthday.svg"/></bx:export></defs><title>happy birthday</title><path d="M637.45,372.4c-9.72,13.55-19.81,28.12-20.64,44.78-1.27,25.59,19.2,46.52,28.34,70.46a83.74,83.74,0,0,1-2.81,65.5c-4.46,9.22-10.82,18.38-10,28.59.47,6.23,3.59,11.9,6.1,17.63a99.4,99.4,0,0,1-5.77,89.75" transform="translate(-180.4 -86.46)" fill="none" stroke-miterlimit="10" stroke-width="2" stroke="url(#1a6f3992-5825-4187-85b9-fb55ca803b83)"/><path d="M595.22,127.2s-46.33,25.15-52.95,75.45" transform="translate(-180.4 -86.46)" fill="#fff" opacity="0.1"/><path class="cls-1" d="M 450.52 61.504 C 469.992 41.703 483.67 24.582 513.803 21.191 C 570.197 14.93 621.966 71.179 593.49 126.551 C 585.384 142.32 568.883 161.078 550.628 179.479 C 530.597 199.684 508.424 219.485 492.895 234.496 L 450.545 275.426 L 415.545 242.605 C 373.438 203.098 304.898 153.371 302.465 91.762 C 300.931 48.604 335.882 20.953 376.092 21.451 C 412.016 21.926 427.203 39.332 450.52 61.504 Z" style="fill: rgb(237, 27, 36); fill-rule: evenodd;"/></svg>