<?xml version="1.0" encoding="utf-8"?>
<svg id="683d3690-e1ab-45db-97b8-9484a1649262" data-name="Layer 1" xmlns="http://www.w3.org/2000/svg" width="839.2" height="727.08" viewBox="0 0 839.2 727.08" xmlns:bx="https://boxy-svg.com"><defs><bx:export><bx:file format="svg" path="happy birthday.svg"/></bx:export></defs><title>happy birthday</title><polygon points="604.93 401.48 589.05 401.48 579.78 396.19 614.2 396.19 604.93 401.48" fill="#535461"/><path d="M737.68,250.34s-46.33,25.15-52.95,75.45" transform="translate(-180.4 -86.46)" fill="#fff" opacity="0.1"/><path class="cls-1" d="M 597.488 189.224 C 615.59 168.128 628.306 149.887 656.319 146.274 C 708.746 139.604 756.873 199.531 730.4 258.525 C 722.865 275.326 707.524 295.31 690.554 314.915 C 671.932 336.44 651.318 357.537 636.882 373.53 L 597.51 417.136 L 564.973 382.17 C 525.828 340.079 462.11 287.099 459.847 221.461 C 458.422 175.479 490.915 146.021 528.295 146.551 C 561.692 147.057 575.811 165.601 597.488 189.224 Z" style="fill: rgb(237, 27, 36); fill-rule: evenodd;"/></svg>